<svg xmlns="http://www.w3.org/2000/svg" width="800" height="162">
  <style>
<![CDATA[
	.st0{fill:#FFFFFF;}
	.st1{fill:#CAC6BE;}
]]>
  </style>
  <g id="mark">
    <path d="M216.4 105l-1-5.6-.3-.1c-4.2 4-9.3 6.8-16.7 6.8-12 0-13.6-8.2-13.6-13.5 0-9.5 5.9-14.1 17.5-15l12.1-.9v-4.8c0-6-1-9.2-8.4-9.2-5.2 0-8.7.4-8.7 6.9l-10.3-1c0-12.2 11.1-13.7 19.2-13.7 13.8 0 18.9 3.9 18.9 17v24.4c0 1.5.1 1.7 1.5 1.9l4.7.7v6.1h-14.9zm-2-21.4l-9 .8c-7.1.7-9.3 2.7-9.3 7.2s2.2 6.1 6.1 6.1c4.7 0 9.4-2.8 12.3-5.7v-8.4zm21.3 21.4v-6.2l4.6-.6c1.3-.2 1.5-.5 1.5-1.9V65.8c0-1-.3-1.6-1.2-2l-5.2-1.8 1-6.1h14.2l1 6.9.3.1c3.1-4.1 7.6-8 14-8 2.2 0 5.7.4 7.4.9v15.6l-8.6-.4-1.1-5.9c-.1-.9-.3-1-1.1-1-3.6 0-7.7 3.1-9.6 4.9v27.3c0 1.5.2 1.8 1.6 1.9l8.9.8v6.1h-27.7zm77.1-2.2c-3.9 1.8-9 3.3-14.1 3.3-10 0-14.2-4.4-14.2-13.8V64.6c0-.6 0-1-.8-1H277v-6.7c7.4-1 10.4-6 11.6-14.3h6.9V55c0 .7 0 1 .8 1h13.8v7.8h-14.5v25.8c0 5.9 1.5 8.1 6.8 8.1 2.8 0 5.8-.8 8.3-1.6l2.1 6.7zm3.9 2.2v-6l5.7-.8c1.3-.2 1.5-.5 1.5-1.9V65.8c0-1-.3-1.7-1.2-2l-5.2-1.8.9-6.1h16.4v40.5c0 1.5.1 1.7 1.5 1.9l5.6.7v6.1h-25.2zm11.5-58.4c-4.6 0-7.1-2.6-7.1-7.1s2.6-6.9 7.1-6.9 7.1 2.5 7.1 6.9c0 4.5-2.6 7.1-7.1 7.1m46.9 23.5l-1-5.5c-.1-.7-.3-1-1-1.3-1.2-.4-3.9-1-6.8-1-6.1 0-9 2.2-9 6 0 5 5.3 6.2 11.3 7.6 7.5 1.8 16 4.1 16 14.9 0 11.2-9.3 15.4-20.1 15.4-8.2 0-16.2-2.2-17.9-3.3v-13l7.9.5 1 5.8c.2.8.3 1 1.1 1.3 1.2.4 4.3 1.3 8.6 1.3 5.9 0 9.5-1.7 9.5-6.6 0-5.3-6.1-6.2-12.4-7.6-7.2-1.6-14.8-3.9-14.8-14 0-11.5 9.6-15.8 19.9-15.8 7 0 13.7 1.8 16 2.8v12.8l-8.3-.3zm45.4 34.9l-.9-5.6-.3-.1c-4.2 4-9.3 6.8-16.7 6.8-12 0-13.6-8.2-13.6-13.5 0-9.5 5.9-14.1 17.5-15l12.1-.9v-4.8c0-6-1-9.2-8.4-9.2-5.2 0-8.7.4-8.7 6.9l-10.3-1c0-12.2 11.1-13.7 19.2-13.7 13.8 0 18.9 3.9 18.9 17v24.4c0 1.5.1 1.7 1.5 1.9l4.7.7v6.1h-15zm-2-21.4l-9 .8c-7.1.7-9.3 2.7-9.3 7.2s2.2 6.1 6.1 6.1c4.7 0 9.4-2.8 12.3-5.7v-8.4zm51.7 21.4v-6l4.8-.6c1.3-.2 1.5-.8 1.5-1.9v-22c0-5.7-.7-10.5-6.7-10.5-4.8 0-9.9 2.7-13 4.9v27.4c0 1.5.1 1.7 1.5 1.9l5 .7v6.1h-23.6v-6.2l4.6-.6c1.3-.2 1.5-.5 1.5-1.9V65.8c0-1-.3-1.7-1.2-2l-5.2-1.8.9-6.1h14.1l.8 5.2.4.1c5.3-3.6 10.9-6.3 17.8-6.3 10.3 0 14.2 6.5 14.2 17.4v24c0 1.5.1 1.7 1.5 1.9l5.2.7v6.1h-24.1zm-385-64.5V0l-3.6 3.7-68.9 68.8h14l48.7-48.7v20.8l32 32 7-7c-.1 0-28-27.9-29.2-29.1" class="st0"/>
    <path d="M72.9 149.8v-14L24.2 87.1H45l32-32-7-7-1.5 1.5-27.7 27.7H.4l72.5 72.5m17-137.6v14l48.7 48.7h-20.8l-32 32 7 7L122 84.7h40.5L89.9 12.2z" class="st1"/>
    <path d="M77.7 162l72.5-72.5h-14l-48.7 48.7v-20.8l-32-32-7 7 29.2 29.2V162" class="st0"/>
  </g>
  <path id="artisan" d="M216.4 105l-1-5.6-.3-.1c-4.2 4-9.3 6.8-16.7 6.8-12 0-13.6-8.2-13.6-13.5 0-9.5 5.9-14.1 17.5-15l12.1-.9v-4.8c0-6-1-9.2-8.4-9.2-5.2 0-8.7.4-8.7 6.9l-10.3-1c0-12.2 11.1-13.7 19.2-13.7 13.8 0 18.9 3.9 18.9 17v24.4c0 1.5.1 1.7 1.5 1.9l4.7.7v6.1h-14.9zm-2-21.4l-9 .8c-7.1.7-9.3 2.7-9.3 7.2s2.2 6.1 6.1 6.1c4.7 0 9.4-2.8 12.3-5.7v-8.4zm21.3 21.4v-6.2l4.6-.6c1.3-.2 1.5-.5 1.5-1.9V65.8c0-1-.3-1.6-1.2-2l-5.2-1.8 1-6.1h14.2l1 6.9.3.1c3.1-4.1 7.6-8 14-8 2.2 0 5.7.4 7.4.9v15.6l-8.6-.4-1.1-5.9c-.1-.9-.3-1-1.1-1-3.6 0-7.7 3.1-9.6 4.9v27.3c0 1.5.2 1.8 1.6 1.9l8.9.8v6.1h-27.7zm77.1-2.2c-3.9 1.8-9 3.3-14.1 3.3-10 0-14.2-4.4-14.2-13.8V64.6c0-.6 0-1-.8-1H277v-6.7c7.4-1 10.4-6 11.6-14.3h6.9V55c0 .7 0 1 .8 1h13.8v7.8h-14.5v25.8c0 5.9 1.5 8.1 6.8 8.1 2.8 0 5.8-.8 8.3-1.6l2.1 6.7zm3.9 2.2v-6l5.7-.8c1.3-.2 1.5-.5 1.5-1.9V65.8c0-1-.3-1.7-1.2-2l-5.2-1.8.9-6.1h16.4v40.5c0 1.5.1 1.7 1.5 1.9l5.6.7v6.1h-25.2zm11.5-58.4c-4.6 0-7.1-2.6-7.1-7.1s2.6-6.9 7.1-6.9 7.1 2.5 7.1 6.9c0 4.5-2.6 7.1-7.1 7.1m46.9 23.5l-1-5.5c-.1-.7-.3-1-1-1.3-1.2-.4-3.9-1-6.8-1-6.1 0-9 2.2-9 6 0 5 5.3 6.2 11.3 7.6 7.5 1.8 16 4.1 16 14.9 0 11.2-9.3 15.4-20.1 15.4-8.2 0-16.2-2.2-17.9-3.3v-13l7.9.5 1 5.8c.2.8.3 1 1.1 1.3 1.2.4 4.3 1.3 8.6 1.3 5.9 0 9.5-1.7 9.5-6.6 0-5.3-6.1-6.2-12.4-7.6-7.2-1.6-14.8-3.9-14.8-14 0-11.5 9.6-15.8 19.9-15.8 7 0 13.7 1.8 16 2.8v12.8l-8.3-.3zm45.4 34.9l-.9-5.6-.3-.1c-4.2 4-9.3 6.8-16.7 6.8-12 0-13.6-8.2-13.6-13.5 0-9.5 5.9-14.1 17.5-15l12.1-.9v-4.8c0-6-1-9.2-8.4-9.2-5.2 0-8.7.4-8.7 6.9l-10.3-1c0-12.2 11.1-13.7 19.2-13.7 13.8 0 18.9 3.9 18.9 17v24.4c0 1.5.1 1.7 1.5 1.9l4.7.7v6.1h-15zm-2-21.4l-9 .8c-7.1.7-9.3 2.7-9.3 7.2s2.2 6.1 6.1 6.1c4.7 0 9.4-2.8 12.3-5.7v-8.4zm51.7 21.4v-6l4.8-.6c1.3-.2 1.5-.8 1.5-1.9v-22c0-5.7-.7-10.5-6.7-10.5-4.8 0-9.9 2.7-13 4.9v27.4c0 1.5.1 1.7 1.5 1.9l5 .7v6.1h-23.6v-6.2l4.6-.6c1.3-.2 1.5-.5 1.5-1.9V65.8c0-1-.3-1.7-1.2-2l-5.2-1.8.9-6.1h14.1l.8 5.2.4.1c5.3-3.6 10.9-6.3 17.8-6.3 10.3 0 14.2 6.5 14.2 17.4v24c0 1.5.1 1.7 1.5 1.9l5.2.7v6.1h-24.1z" class="st0"/>
  <path id="church" d="M542.6 101.9c-4 2.5-10.5 4.3-17 4.3-16.6 0-23.8-10.5-23.8-25.1 0-17.9 10.5-26.1 25.3-26.1 7.2 0 13 2 15.5 3.4v13.5l-7.9-.4-1.1-6.3c-.1-.7-.3-1-1-1.3-1.2-.5-3.5-.9-5.9-.9-7.3 0-13.4 4.6-13.4 17.2 0 12.9 6 17.2 14.3 17.2 4.8 0 9-1.3 12.1-2.9l2.9 7.4zm35 3.1v-6l4.5-.7c1.5-.2 1.6-.8 1.6-2v-22c0-4.5-.5-10.5-6.7-10.5-4.7 0-9.5 2.7-13 5.1v27.4c0 1.5.1 1.7 1.5 1.9l5 .7v6.1h-23.6v-6l4.6-.8c1.3-.2 1.5-.5 1.5-1.9V43.2c0-1-.3-1.7-1.2-2l-5.4-1.8.9-6.1h16.5V61c4.8-3.2 9.8-6.1 16.4-6.1 10.3 0 14.3 6.7 14.3 17.2v24.2c0 1.5.1 1.7 1.5 1.9l5.2.7v6.1h-23.6zm61.8 0l-.9-5.8-.3-.1c-4.2 3.3-9.5 7-17.8 7-10.3 0-13.7-5.2-13.7-16.2V65.3c0-1.5-.1-1.8-1.5-2.1l-4.8-1.1.9-6.2h16.4v31.7c0 6.4 1 9.8 6.4 9.8 5.5 0 10.3-3.6 13.2-6.6V65.3c0-1.5-.1-1.8-1.5-2.1l-4.6-1.1.9-6.2h16.2v40.5c0 1.2.2 1.7 1.2 1.9l4.9.7v6.1h-15zm19.9 0v-6.2l4.6-.6c1.3-.2 1.5-.5 1.5-1.9V65.8c0-1-.3-1.6-1.2-2L659 62l1-6.1h14l1 6.9.3.1c3.1-4.1 7.6-8 14-8 2.2 0 5.7.4 7.4.9v15.6l-8.5-.4-1.1-5.9c-.1-.9-.3-1-1.1-1-3.6 0-7.7 3.1-9.6 4.9v27.3c0 1.5.2 1.8 1.6 1.9l8.9.8v6.1h-27.6zm82-3.1c-4 2.5-10.5 4.3-17 4.3-16.6 0-23.8-10.5-23.8-25.1 0-17.9 10.5-26.1 25.3-26.1 7.2 0 13 2 15.5 3.4v13.5l-7.9-.4-1.1-6.3c-.1-.7-.3-1-1-1.3-1.2-.5-3.5-.9-5.9-.9-7.3 0-13.4 4.6-13.4 17.2 0 12.9 6 17.2 14.3 17.2 4.8 0 9-1.3 12.1-2.9l2.9 7.4zm34.9 3.1v-6l4.5-.7c1.5-.2 1.6-.8 1.6-2v-22c0-4.5-.5-10.5-6.7-10.5-4.7 0-9.5 2.7-13 5.1v27.4c0 1.5.1 1.7 1.5 1.9l5 .7v6.1h-23.6v-6l4.6-.8c1.3-.2 1.5-.5 1.5-1.9V43.2c0-1-.3-1.7-1.2-2l-5.4-1.8.9-6.1h16.5V61c4.8-3.2 9.8-6.1 16.4-6.1 10.3 0 14.3 6.7 14.3 17.2v24.2c0 1.5.1 1.7 1.5 1.9l5.2.7v6.1h-23.6z" class="st1"/>
</svg>
