<?xml version="1.0" encoding="utf-8"?>
<!-- Generator: Adobe Illustrator 15.0.0, SVG Export Plug-In . SVG Version: 6.00 Build 0)  -->
<!DOCTYPE svg PUBLIC "-//W3C//DTD SVG 1.1//EN" "http://www.w3.org/Graphics/SVG/1.1/DTD/svg11.dtd">
<svg version="1.1" xmlns="http://www.w3.org/2000/svg" xmlns:xlink="http://www.w3.org/1999/xlink" x="0px" y="0px"
	 width="575.066px" height="117.045px" viewBox="0 0 575.066 117.045" enable-background="new 0 0 575.066 117.045"
	 xml:space="preserve">
<g id="Adelle_Semibold">
	<g>
		<path fill="#484748" d="M155.52,75.784l-0.684-4.029l-0.205-0.068c-3.004,2.868-6.691,4.917-12.018,4.917
			c-8.604,0-9.764-5.872-9.764-9.696c0-6.828,4.232-10.106,12.563-10.789l8.672-0.683v-3.482c0-4.302-0.75-6.624-6.008-6.624
			c-3.756,0-6.281,0.273-6.281,4.984l-7.375-0.683c0-8.74,7.988-9.833,13.793-9.833c9.9,0,13.588,2.8,13.588,12.223V69.57
			c0,1.093,0.068,1.229,1.092,1.366l3.348,0.478v4.37H155.52z M154.084,60.42l-6.486,0.546c-5.121,0.478-6.691,1.912-6.691,5.189
			c0,3.278,1.57,4.37,4.371,4.37c3.346,0,6.76-2.048,8.807-4.097V60.42z"/>
		<path fill="#484748" d="M169.383,75.784v-4.438l3.279-0.41c0.955-0.137,1.092-0.341,1.092-1.366V47.583
			c0-0.751-0.205-1.161-0.889-1.434l-3.754-1.297l0.682-4.37h10.174l0.752,4.984l0.205,0.068c2.252-2.936,5.463-5.736,10.037-5.736
			c1.57,0,4.098,0.273,5.326,0.615v11.198l-6.145-0.273l-0.82-4.233c-0.068-0.615-0.205-0.751-0.82-0.751
			c-2.594,0-5.529,2.253-6.896,3.551v19.597c0,1.093,0.137,1.297,1.162,1.366l6.418,0.546v4.37H169.383z"/>
		<path fill="#484748" d="M224.832,74.213c-2.801,1.297-6.488,2.39-10.107,2.39c-7.168,0-10.174-3.141-10.174-9.901V46.763
			c0-0.41,0-0.683-0.545-0.683h-4.918v-4.848c5.326-0.683,7.443-4.302,8.332-10.311h4.984v8.876c0,0.478,0,0.683,0.545,0.683h9.902
			v5.599h-10.447v18.573c0,4.234,1.092,5.804,4.916,5.804c2.049,0,4.166-0.546,5.941-1.161L224.832,74.213z"/>
		<path fill="#484748" d="M227.643,75.784v-4.302l4.098-0.546c0.955-0.137,1.092-0.341,1.092-1.366V47.583
			c0-0.751-0.205-1.229-0.889-1.434l-3.754-1.297l0.682-4.37h11.813V69.57c0,1.093,0.068,1.229,1.094,1.366l4.027,0.478v4.37
			H227.643z M235.904,33.79c-3.277,0-5.121-1.844-5.121-5.121c0-3.209,1.844-4.985,5.121-4.985c3.209,0,5.121,1.775,5.121,4.985
			C241.025,31.946,239.113,33.79,235.904,33.79z"/>
		<path fill="#484748" d="M269.6,50.655l-0.75-3.96c-0.068-0.478-0.205-0.751-0.752-0.956c-0.887-0.273-2.799-0.683-4.916-0.683
			c-4.369,0-6.486,1.571-6.486,4.302c0,3.619,3.824,4.438,8.125,5.463c5.395,1.297,11.473,2.936,11.473,10.72
			c0,8.058-6.693,11.062-14.477,11.062c-5.873,0-11.607-1.57-12.838-2.39v-9.287l5.668,0.341l0.684,4.166
			c0.137,0.546,0.205,0.751,0.818,0.956c0.889,0.273,3.072,0.956,6.146,0.956c4.232,0,6.828-1.229,6.828-4.711
			c0-3.824-4.371-4.438-8.945-5.463c-5.189-1.161-10.652-2.799-10.652-10.038c0-8.262,6.896-11.335,14.271-11.335
			c5.053,0,9.832,1.297,11.471,1.98v9.218L269.6,50.655z"/>
		<path fill="#484748" d="M302.242,75.784l-0.682-4.029l-0.205-0.068c-3.006,2.868-6.691,4.917-12.018,4.917
			c-8.605,0-9.766-5.872-9.766-9.696c0-6.828,4.234-10.106,12.564-10.789l8.672-0.683v-3.482c0-4.302-0.752-6.624-6.01-6.624
			c-3.754,0-6.281,0.273-6.281,4.984l-7.375-0.683c0-8.74,7.99-9.833,13.793-9.833c9.902,0,13.59,2.8,13.59,12.223V69.57
			c0,1.093,0.068,1.229,1.092,1.366l3.346,0.478v4.37H302.242z M300.809,60.42l-6.486,0.546c-5.121,0.478-6.691,1.912-6.691,5.189
			c0,3.278,1.57,4.37,4.369,4.37c3.346,0,6.76-2.048,8.809-4.097V60.42z"/>
		<path fill="#484748" d="M338.025,75.784v-4.302l3.414-0.41c0.957-0.137,1.094-0.546,1.094-1.366V53.865
			c0-4.097-0.479-7.511-4.848-7.511c-3.482,0-7.102,1.912-9.355,3.551V69.57c0,1.093,0.068,1.229,1.092,1.366l3.619,0.478v4.37
			h-16.934v-4.438l3.277-0.41c0.955-0.137,1.092-0.341,1.092-1.366V47.583c0-0.751-0.205-1.229-0.887-1.434l-3.756-1.297l0.684-4.37
			h10.105l0.547,3.755l0.271,0.068c3.824-2.595,7.854-4.507,12.77-4.507c7.375,0,10.174,4.644,10.174,12.496V69.57
			c0,1.093,0.068,1.229,1.094,1.366l3.754,0.478v4.37H338.025z"/>
		<path fill="#AEACAE" d="M390.053,73.53c-2.869,1.775-7.512,3.073-12.223,3.073c-11.951,0-17.141-7.58-17.141-18.027
			c0-12.837,7.58-18.778,18.164-18.778c5.189,0,9.355,1.434,11.131,2.458v9.696l-5.668-0.273l-0.82-4.507
			c-0.068-0.478-0.205-0.751-0.75-0.956c-0.889-0.342-2.527-0.615-4.234-0.615c-5.258,0-9.627,3.278-9.627,12.359
			c0,9.287,4.301,12.359,10.242,12.359c3.414,0,6.486-0.956,8.672-2.117L390.053,73.53z"/>
		<path fill="#AEACAE" d="M415.178,75.784v-4.302l3.209-0.478c1.092-0.137,1.16-0.546,1.16-1.434V53.728
			c0-3.209-0.342-7.511-4.848-7.511c-3.346,0-6.828,1.912-9.355,3.687V69.57c0,1.093,0.068,1.229,1.094,1.366l3.619,0.478v4.37
			h-16.936v-4.302l3.279-0.546c0.955-0.137,1.092-0.341,1.092-1.366V31.332c0-0.751-0.205-1.229-0.889-1.434l-3.891-1.297
			l0.682-4.37h11.881v19.938c3.414-2.321,7.033-4.37,11.814-4.37c7.373,0,10.311,4.848,10.311,12.359V69.57
			c0,1.093,0.068,1.229,1.092,1.366l3.756,0.478v4.37H415.178z"/>
		<path fill="#AEACAE" d="M459.639,75.784l-0.615-4.165l-0.205-0.068c-3.004,2.39-6.828,5.053-12.768,5.053
			c-7.375,0-9.834-3.755-9.834-11.608V47.241c0-1.092-0.068-1.297-1.092-1.502l-3.482-0.819l0.615-4.438h11.813v22.807
			c0,4.575,0.75,7.033,4.574,7.033c3.961,0,7.375-2.595,9.492-4.78v-18.3c0-1.092-0.068-1.297-1.092-1.502l-3.279-0.819l0.615-4.438
			h11.607V69.57c0,0.888,0.137,1.229,0.889,1.366l3.551,0.478v4.37H459.639z"/>
		<path fill="#AEACAE" d="M473.918,75.784v-4.438l3.279-0.41c0.955-0.137,1.092-0.341,1.092-1.366V47.583
			c0-0.751-0.205-1.161-0.889-1.434l-3.754-1.297l0.682-4.37h10.174l0.752,4.984l0.205,0.068c2.252-2.936,5.463-5.736,10.037-5.736
			c1.57,0,4.098,0.273,5.326,0.615v11.198l-6.145-0.273l-0.82-4.233c-0.068-0.615-0.205-0.751-0.82-0.751
			c-2.594,0-5.529,2.253-6.896,3.551v19.597c0,1.093,0.137,1.297,1.162,1.366l6.418,0.546v4.37H473.918z"/>
		<path fill="#AEACAE" d="M532.885,73.53c-2.869,1.775-7.512,3.073-12.223,3.073c-11.951,0-17.141-7.58-17.141-18.027
			c0-12.837,7.58-18.778,18.164-18.778c5.189,0,9.355,1.434,11.131,2.458v9.696l-5.668-0.273l-0.82-4.507
			c-0.068-0.478-0.205-0.751-0.75-0.956c-0.889-0.342-2.527-0.615-4.234-0.615c-5.258,0-9.627,3.278-9.627,12.359
			c0,9.287,4.301,12.359,10.242,12.359c3.414,0,6.486-0.956,8.672-2.117L532.885,73.53z"/>
		<path fill="#AEACAE" d="M558.01,75.784v-4.302l3.209-0.478c1.092-0.137,1.16-0.546,1.16-1.434V53.728
			c0-3.209-0.342-7.511-4.848-7.511c-3.346,0-6.828,1.912-9.355,3.687V69.57c0,1.093,0.068,1.229,1.094,1.366l3.619,0.478v4.37
			h-16.936v-4.302l3.279-0.546c0.955-0.137,1.092-0.341,1.092-1.366V31.332c0-0.751-0.205-1.229-0.889-1.434l-3.891-1.297
			l0.682-4.37h11.881v19.938c3.414-2.321,7.033-4.37,11.814-4.37c7.373,0,10.311,4.848,10.311,12.359V69.57
			c0,1.093,0.068,1.229,1.092,1.366l3.756,0.478v4.37H558.01z"/>
	</g>
</g>
<g id="Mark">
	<path fill="#484748" d="M61.221,29.239c0-1.221,0-29.239,0-29.239l-2.637,2.641L8.838,52.384h10.093
		c0,0,34.548-34.548,35.187-35.187c0,4.706,0,15.024,0,15.024l23.142,23.143l5.047-5.046C82.306,50.318,62.089,30.105,61.221,29.239
		z"/>
	<path fill="#AEACAE" d="M52.387,108.206v-10.09c0,0-34.551-34.551-35.189-35.187c4.706,0,15.023,0,15.023,0l23.146-23.14
		l-5.053-5.047l-1.093,1.093c0,0-19.121,19.124-19.988,19.99c-1.219,0-29.233,0-29.233,0L52.387,108.206"/>
	<path fill="#AEACAE" d="M64.657,8.837V18.93c0,0,34.424,34.426,35.188,35.188c-4.707,0-15.021,0-15.021,0l-23.145,23.14
		l5.049,5.048c0,0,20.216-20.216,21.083-21.082c1.22,0,29.235,0,29.235,0L64.657,8.837z"/>
	<path fill="#484748" d="M55.824,117.045l52.384-52.384h-10.09c0,0-34.551,34.546-35.19,35.184c0-4.706,0-15.023,0-15.023
		L39.785,61.68l-5.044,5.044c0,0,20.215,20.22,21.083,21.087C55.824,89.031,55.824,117.045,55.824,117.045"/>
</g>
</svg>
